<?xml version="1.0" encoding="UTF-8"?>
<svg version="1.1" xmlns="http://www.w3.org/2000/svg" width="1024" height="1024">
<path d="M0 0 C337.92 0 675.84 0 1024 0 C1024 337.92 1024 675.84 1024 1024 C686.08 1024 348.16 1024 0 1024 C0 686.08 0 348.16 0 0 Z " fill="#FDFEFE" transform="translate(0,0)"/>
<path d="M0 0 C1.1288562 -0.00217529 2.2577124 -0.00435059 3.42077637 -0.0065918 C22.53394572 -0.00242483 41.74558914 0.54902624 60.5 4.5625 C61.52939697 4.77753174 62.55879395 4.99256348 63.61938477 5.21411133 C118.20829981 16.96056857 166.97750879 41.81075841 208.1875 79.375 C209.8956916 80.89599252 211.60402449 82.41682638 213.3125 83.9375 C220.42911642 90.36576975 226.83520669 96.97707164 232.83984375 104.46484375 C235.22035577 107.41572803 237.66814891 110.30002712 240.125 113.1875 C254.08917796 129.98748026 266.03212664 148.73582107 275.31103516 168.51171875 C276.18513452 170.3699712 277.08055815 172.21663002 277.98046875 174.0625 C290.17225075 199.29299448 298.35423342 226.26046778 302.3125 254 C302.48136719 255.13695312 302.65023437 256.27390625 302.82421875 257.4453125 C304.61098625 269.71351141 305.39256742 281.73145179 305.375 294.125 C305.37459213 295.21015396 305.37459213 295.21015396 305.37417603 296.31723022 C305.35222347 309.08501128 304.75067608 321.69352585 303.1875 334.375 C303.02677002 335.68645996 303.02677002 335.68645996 302.86279297 337.02441406 C301.42246082 348.35838148 299.29207927 359.36905717 296.1875 370.375 C295.91276855 371.36419434 295.63803711 372.35338867 295.35498047 373.37255859 C291.14757245 388.42067555 286.49815108 403.07220353 280.1875 417.375 C279.82462891 418.20628418 279.46175781 419.03756836 279.08789062 419.89404297 C270.23844209 439.94238486 258.99013556 458.60714729 245.41845703 475.81054688 C244.36614397 477.14795705 243.33511226 478.50206571 242.30859375 479.859375 C229.01223681 497.41697404 213.67184635 513.94127934 196.1875 527.375 C194.68316406 528.60476563 194.68316406 528.60476563 193.1484375 529.859375 C165.3496589 552.51853474 133.87954112 568.51856324 100.1875 580.375 C99.36813965 580.66503906 98.5487793 580.95507812 97.70458984 581.25390625 C76.23209975 588.74462536 53.78376064 593.10684233 31.1875 595.375 C29.8104187 595.51639404 29.8104187 595.51639404 28.40551758 595.66064453 C20.19115191 596.43024654 11.99704267 596.61679675 3.75 596.625 C3.03872955 596.62600708 2.32745911 596.62701416 1.59463501 596.62805176 C-19.29706782 596.60830013 -40.03031857 594.6091309 -60.41455078 589.92529297 C-62.92731711 589.34865122 -65.44552128 588.8011342 -67.96484375 588.25390625 C-129.0196519 574.68742831 -191.06965427 538.65926413 -229.82421875 488.91796875 C-232.00226019 486.13230081 -234.30980444 483.48500133 -236.625 480.8125 C-256.31358806 457.2106522 -271.33313821 428.54993235 -281.89599609 399.85595703 C-282.66699854 397.76886942 -283.4598936 395.69337372 -284.26953125 393.62109375 C-290.31911616 377.6617126 -293.91490842 361.05879148 -296.625 344.25 C-296.83189453 342.97068604 -297.03878906 341.69137207 -297.25195312 340.37329102 C-299.47733359 325.96357787 -300.05241496 311.738672 -300.0625 297.1875 C-300.06317474 296.30682861 -300.06384949 295.42615723 -300.06454468 294.51879883 C-300.02932639 265.43573257 -295.85590531 237.07202092 -286.8125 209.375 C-286.45381836 208.24843994 -286.45381836 208.24843994 -286.08789062 207.09912109 C-274.01071082 169.44719358 -254.03443126 133.00338002 -227.11328125 103.88671875 C-225.21246897 101.81163845 -223.36634716 99.70737451 -221.52734375 97.578125 C-212.21591185 86.91175958 -202.01420172 77.03086042 -190.8125 68.375 C-189.47525275 67.29980402 -188.13943168 66.22283296 -186.8046875 65.14453125 C-147.79609326 33.88060806 -102.4489827 14.6957719 -53.8125 4.375 C-52.74467285 4.13491211 -51.6768457 3.89482422 -50.57666016 3.64746094 C-33.84103565 -0.01456549 -17.05308305 0.0176539 0 0 Z " fill="#FDFEFD" transform="translate(507.8125,126.625)"/>
<path d="M0 0 C11.56650726 8.65002406 20.00345663 20.71884201 23 35 C23.24992731 38.85077393 23.23126013 42.70442997 23.25 46.5625 C23.2809375 48.11420898 23.2809375 48.11420898 23.3125 49.69726562 C23.36339617 59.85741345 21.10561093 68.77723611 16.5 77.8125 C16.15743164 78.48627686 15.81486328 79.16005371 15.46191406 79.85424805 C3.476243 102.50122129 -16.37537767 116.30659948 -39 127 C-37.13605624 133.50373418 -35.02509551 139.82956239 -32.55078125 146.125 C-32.05595497 147.39836212 -32.05595497 147.39836212 -31.5511322 148.69744873 C-30.84277822 150.51942242 -30.13277921 152.34075727 -29.42126465 154.16149902 C-27.90499365 158.04323958 -26.39855508 161.9287709 -24.89163208 165.81414795 C-24.10853467 167.83321247 -23.32506348 169.85213205 -22.54122925 171.87091064 C-18.76654449 181.59340385 -15.00852141 191.32215757 -11.28012085 201.0625 C-10.60382369 202.8269033 -9.92568034 204.59060029 -9.24551392 206.35351562 C6.11458506 246.1731916 6.11458506 246.1731916 0.625 259.4375 C-12.72653911 280.26225554 -44.92893662 288.47343072 -67.375 293.6875 C-71.23834948 294.52467918 -75.11434193 295.27391831 -79 296 C-80.29663574 296.24347168 -81.59327148 296.48694336 -82.92919922 296.73779297 C-104.51675033 300.74031907 -126.08067295 303.60493634 -148 305 C-148.72129089 305.04665802 -149.44258179 305.09331604 -150.18572998 305.14138794 C-167.52306625 306.21857889 -184.88548739 306.28819095 -202.25 306.3125 C-203.01484333 306.31379787 -203.77968666 306.31509575 -204.56770706 306.31643295 C-243.00158827 306.365668 -281.20547227 304.41946378 -319 297 C-319.98242676 296.81356934 -320.96485352 296.62713867 -321.97705078 296.43505859 C-343.37882162 292.30192211 -365.03059047 285.90624528 -384 275 C-384.88429688 274.49984375 -385.76859375 273.9996875 -386.6796875 273.484375 C-393.82138778 269.10797954 -401.48839586 262.16271347 -404 254 C-404.78945349 244.73369607 -403.32320776 237.11517648 -400.1875 228.4375 C-399.78225098 227.27186523 -399.37700195 226.10623047 -398.95947266 224.90527344 C-395.05811458 213.83188661 -390.74816837 202.92070807 -386.38832092 192.02168274 C-382.84205418 183.13037221 -379.43049577 174.18643214 -376 165.25 C-375.3462337 163.54913739 -374.69242608 161.84829066 -374.03857422 160.14746094 C-373.42145817 158.5410507 -372.80442946 156.93460691 -372.1875 155.328125 C-371.90979767 154.60524292 -371.63209534 153.88236084 -371.34597778 153.13757324 C-369.54164901 148.43327608 -367.7643294 143.71944869 -366 139 C-366.66902344 138.74347656 -367.33804688 138.48695313 -368.02734375 138.22265625 C-396.79302975 126.75499351 -421.60911244 109.11584798 -434.21777344 79.9609375 C-439.79583268 65.97748812 -440.29650053 49.10689794 -434.5390625 35.1796875 C-426.93337671 19.46641786 -415.86609474 10.20268881 -399.66796875 4.125 C-386.64366049 0.53895719 -373.61408109 2.50862808 -362 9 C-353.4213558 14.83305072 -346.66052321 22.80132768 -344 33 C-342.30382675 43.853603 -343.24992418 54.35203835 -349.73046875 63.421875 C-355.83214175 70.87541567 -362.69545796 75.25113098 -372.32421875 76.23828125 C-379.75172213 76.47154169 -386.37234656 75.2048818 -392.078125 70.1640625 C-397.83697191 63.84868837 -400.67314849 58.40973372 -400.4140625 49.75390625 C-399.54496156 43.97356512 -396.50378057 40.43217197 -392.375 36.5 C-387.53077638 34.34701172 -383.21825998 34.23123849 -378 35 C-373.60452122 37.1192487 -370.74222301 39.38823322 -369 44 C-368.69721498 47.95783276 -368.85242691 51.48588864 -371.30859375 54.7265625 C-372.875 56.125 -372.875 56.125 -376 58 C-376.99 57.67 -377.98 57.34 -379 57 C-378.030625 56.360625 -377.06125 55.72125 -376.0625 55.0625 C-373.23963731 53.3034741 -373.23963731 53.3034741 -372 52 C-371.38990916 46.37188542 -371.38990916 46.37188542 -373.8125 41.5625 C-377.77407078 38.73280658 -381.23917041 38.58958366 -386 39 C-389.22618733 41.0790985 -390.8669302 42.80039529 -393 46 C-393.70517642 51.22322537 -393.64840521 55.67917457 -391.3125 60.4375 C-387.63813121 64.50909785 -384.47390095 67.55381089 -378.87109375 68.2734375 C-371.94397078 68.56253091 -366.60234367 67.19452581 -361 63 C-353.97432596 54.86275887 -353.38114436 47.49719278 -354 37 C-355.30668067 29.57949232 -360.17483809 23.68759202 -366.24609375 19.421875 C-375.07084872 14.24309805 -385.54659102 13.65724846 -395.55859375 15.4609375 C-405.94811689 18.60927785 -414.41159914 24.49866197 -419.66015625 34.0078125 C-426.03424534 46.51489038 -427.23180341 59.74166127 -423.0625 73.3125 C-416.46602617 92.88779765 -400.84986801 108.0433157 -382.67578125 117.265625 C-375.27686769 120.85905679 -367.70589127 124.12212415 -360 127 C-359.86464844 126.46375 -359.72929687 125.9275 -359.58984375 125.375 C-355.72541153 111.30568987 -351.51020056 99.63811198 -338.61328125 91.9921875 C-315.99315451 79.16414391 -291.37223618 74.83492146 -266 71 C-264.80624756 70.81888672 -263.61249512 70.63777344 -262.38256836 70.45117188 C-241.60076439 67.38273674 -220.90885064 66.81126357 -199.9375 66.8125 C-198.94283722 66.81159363 -197.94817444 66.81068726 -196.92337036 66.80975342 C-178.94796358 66.81160653 -161.13709893 67.37771998 -143.29150391 69.61962891 C-141.2357164 69.87678673 -139.17863715 70.1206166 -137.12109375 70.36328125 C-124.22405223 71.92214454 -111.59682975 74.30464304 -99.125 78 C-97.83722656 78.37125 -97.83722656 78.37125 -96.5234375 78.75 C-58.26436466 89.8799121 -58.26436466 89.8799121 -48.12109375 105.53125 C-46.57348822 108.93921759 -45.83172236 112.35115352 -45 116 C-21.00256247 104.27844125 -1.76421071 90.04629796 8.2734375 64.25390625 C11.71499169 53.57768707 12.04543091 38.5377105 7.875 28.125 C6.52896085 25.41889541 6.52896085 25.41889541 5 23 C4.55398438 22.25878906 4.10796875 21.51757812 3.6484375 20.75390625 C-2.70969495 11.35878875 -12.12154462 5.77173722 -23 3 C-33.86600348 1.64025862 -43.35811829 3.53769239 -52.375 9.8125 C-58.35315538 14.66362609 -62.52807227 20.6532972 -63.37109375 28.41796875 C-63.51427238 36.5454616 -63.18202764 43.33561349 -58 50 C-52.76100809 55.05942969 -47.49067222 58.00397836 -40.1875 58.4375 C-34.6774918 58.31432545 -31.12841981 56.57669551 -27 53 C-23.45545584 49.27822864 -22.73019999 46.43495978 -22.5625 41.4375 C-22.7291757 37.20738559 -23.06695574 34.24729901 -26 31 C-30.44710965 28.28339606 -34.93415315 28.33410665 -40 29 C-43.45121809 31.10440127 -43.87245677 32.56157015 -45 36.4375 C-45.32163517 40.05856757 -45.32163517 40.05856757 -43.1875 42.8125 C-42.465625 43.534375 -41.74375 44.25625 -41 45 C-40.34 45.66 -39.68 46.32 -39 47 C-42.28186266 46.43416161 -43.89184922 45.58727596 -46 43 C-48.20215965 39.63880895 -48.54544533 36.9739588 -48 33 C-45.80797955 28.81682153 -43.50399057 25.70728884 -39 24 C-33.7598978 23.31926165 -29.3390108 23.34266742 -24.5625 25.6875 C-20.27732207 29.55461179 -16.50543115 33.62159181 -15.62890625 39.48046875 C-15.43301018 47.46611442 -17.19676462 52.87154735 -22.64453125 58.78515625 C-29.34667297 64.9426544 -35.55917693 66.69233444 -44.57421875 66.484375 C-52.54158433 65.35786037 -59.89350411 61.22354187 -65 55 C-65.680625 54.278125 -66.36125 53.55625 -67.0625 52.8125 C-73.63447309 43.27253906 -74.23279392 33.26779035 -73 22 C-70.71419738 11.38251444 -63.50815693 3.34658876 -54.62890625 -2.49609375 C-37.0535223 -12.55036243 -16.99963482 -10.66552431 0 0 Z " fill="#E08D4B" transform="translate(712,308)"/>
<path d="M0 0 C1.1288562 -0.00217529 2.2577124 -0.00435059 3.42077637 -0.0065918 C22.53394572 -0.00242483 41.74558914 0.54902624 60.5 4.5625 C61.52939697 4.77753174 62.55879395 4.99256348 63.61938477 5.21411133 C118.20829981 16.96056857 166.97750879 41.81075841 208.1875 79.375 C209.8956916 80.89599252 211.60402449 82.41682638 213.3125 83.9375 C220.42911642 90.36576975 226.83520669 96.97707164 232.83984375 104.46484375 C235.22035577 107.41572803 237.66814891 110.30002712 240.125 113.1875 C254.08917796 129.98748026 266.03212664 148.73582107 275.31103516 168.51171875 C276.18513452 170.3699712 277.08055815 172.21663002 277.98046875 174.0625 C290.17225075 199.29299448 298.35423342 226.26046778 302.3125 254 C302.48136719 255.13695312 302.65023437 256.27390625 302.82421875 257.4453125 C304.61098625 269.71351141 305.39256742 281.73145179 305.375 294.125 C305.37459213 295.21015396 305.37459213 295.21015396 305.37417603 296.31723022 C305.35222347 309.08501128 304.75067608 321.69352585 303.1875 334.375 C303.02677002 335.68645996 303.02677002 335.68645996 302.86279297 337.02441406 C301.42246082 348.35838148 299.29207927 359.36905717 296.1875 370.375 C295.91276855 371.36419434 295.63803711 372.35338867 295.35498047 373.37255859 C291.14757245 388.42067555 286.49815108 403.07220353 280.1875 417.375 C279.82462891 418.20628418 279.46175781 419.03756836 279.08789062 419.89404297 C270.23844209 439.94238486 258.99013556 458.60714729 245.41845703 475.81054688 C244.36614397 477.14795705 243.33511226 478.50206571 242.30859375 479.859375 C229.01223681 497.41697404 213.67184635 513.94127934 196.1875 527.375 C194.68316406 528.60476563 194.68316406 528.60476563 193.1484375 529.859375 C165.3496589 552.51853474 133.87954112 568.51856324 100.1875 580.375 C99.36813965 580.66503906 98.5487793 580.95507812 97.70458984 581.25390625 C76.23209975 588.74462536 53.78376064 593.10684233 31.1875 595.375 C29.8104187 595.51639404 29.8104187 595.51639404 28.40551758 595.66064453 C20.19115191 596.43024654 11.99704267 596.61679675 3.75 596.625 C3.03872955 596.62600708 2.32745911 596.62701416 1.59463501 596.62805176 C-19.29706782 596.60830013 -40.03031857 594.6091309 -60.41455078 589.92529297 C-62.92731711 589.34865122 -65.44552128 588.8011342 -67.96484375 588.25390625 C-129.0196519 574.68742831 -191.06965427 538.65926413 -229.82421875 488.91796875 C-232.00226019 486.13230081 -234.30980444 483.48500133 -236.625 480.8125 C-256.31358806 457.2106522 -271.33313821 428.54993235 -281.89599609 399.85595703 C-282.66699854 397.76886942 -283.4598936 395.69337372 -284.26953125 393.62109375 C-290.31911616 377.6617126 -293.91490842 361.05879148 -296.625 344.25 C-296.83189453 342.97068604 -297.03878906 341.69137207 -297.25195312 340.37329102 C-299.47733359 325.96357787 -300.05241496 311.738672 -300.0625 297.1875 C-300.06317474 296.30682861 -300.06384949 295.42615723 -300.06454468 294.51879883 C-300.02932639 265.43573257 -295.85590531 237.07202092 -286.8125 209.375 C-286.45381836 208.24843994 -286.45381836 208.24843994 -286.08789062 207.09912109 C-274.01071082 169.44719358 -254.03443126 133.00338002 -227.11328125 103.88671875 C-225.21246897 101.81163845 -223.36634716 99.70737451 -221.52734375 97.578125 C-212.21591185 86.91175958 -202.01420172 77.03086042 -190.8125 68.375 C-189.47525275 67.29980402 -188.13943168 66.22283296 -186.8046875 65.14453125 C-147.79609326 33.88060806 -102.4489827 14.6957719 -53.8125 4.375 C-52.74467285 4.13491211 -51.6768457 3.89482422 -50.57666016 3.64746094 C-33.84103565 -0.01456549 -17.05308305 0.0176539 0 0 Z M-83.8125 29.375 C-85.66488281 29.92220703 -85.66488281 29.92220703 -87.5546875 30.48046875 C-120.67384603 40.91478429 -152.00240871 58.39616881 -178.8125 80.375 C-179.37001953 80.83100586 -179.92753906 81.28701172 -180.50195312 81.75683594 C-195.50725096 94.1283135 -210.08405735 107.81775993 -221.8125 123.375 C-222.72422808 124.53596771 -223.63707113 125.69606032 -224.55078125 126.85546875 C-268.73299048 183.58647114 -289.49430834 256.82767057 -281.98754883 328.35595703 C-281.39878103 333.05579099 -280.65527998 337.714443 -279.8125 342.375 C-279.63557617 343.3659668 -279.45865234 344.35693359 -279.27636719 345.37792969 C-271.22884319 389.25708904 -253.47253975 429.65136328 -226.8125 465.375 C-226.39419922 465.93896484 -225.97589844 466.50292969 -225.54492188 467.08398438 C-218.00409351 477.18063548 -209.57463494 486.33119782 -200.8125 495.375 C-199.48798828 496.74398437 -199.48798828 496.74398437 -198.13671875 498.140625 C-193.55573933 502.79281135 -188.82789796 507.1955017 -183.8125 511.375 C-183.31041016 511.79620117 -182.80832031 512.21740234 -182.29101562 512.65136719 C-172.28878553 520.99817592 -161.81713045 528.40967639 -150.8125 535.375 C-150.13525879 535.80522461 -149.45801758 536.23544922 -148.76025391 536.67871094 C-123.66471164 552.44883095 -96.33228399 563.78134062 -67.56933594 570.70239258 C-65.68314546 571.16258163 -63.80105641 571.63982458 -61.92285156 572.1315918 C-40.14450637 577.80504741 -18.32694098 578.75926289 4.0625 578.75 C5.13195862 578.75172211 6.20141724 578.75344421 7.30328369 578.75521851 C20.07277262 578.7528913 32.55492836 578.28274885 45.1875 576.375 C46.26418945 576.21418945 47.34087891 576.05337891 48.45019531 575.88769531 C103.00628997 567.14957767 154.65685492 543.02144187 195.1875 505.375 C196.51721825 504.2249734 197.85045928 503.07900512 199.1875 501.9375 C206.7650607 495.32435612 213.73541281 488.08235707 220.1875 480.375 C220.61836914 479.87387695 221.04923828 479.37275391 221.49316406 478.85644531 C268.95896518 423.53819828 293.18371925 350.20219692 287.72265625 277.484375 C284.70295185 243.49648494 276.64876029 211.25111071 262.1875 180.375 C261.8354248 179.62105957 261.48334961 178.86711914 261.12060547 178.09033203 C251.32502208 157.33632853 238.94477719 137.95755516 224.1875 120.375 C223.7656543 119.86437012 223.34380859 119.35374023 222.90917969 118.82763672 C212.96955329 106.81112574 202.27362496 95.27330269 190.1875 85.375 C189.68202637 84.95573242 189.17655273 84.53646484 188.65576172 84.10449219 C174.69202641 72.55184699 159.95714627 62.31049262 144.1875 53.375 C143.14698486 52.78187012 143.14698486 52.78187012 142.08544922 52.17675781 C73.26626876 13.35726036 -8.70018031 6.98183921 -83.8125 29.375 Z " fill="#E3E3E2" transform="translate(507.8125,126.625)"/>
<path d="M0 0 C1.08597473 0.00126892 2.17194946 0.00253784 3.29083252 0.00384521 C37.80945028 0.08060824 72.38973978 1.78811274 105.4375 12.625 C106.49799561 12.97183838 107.55849121 13.31867676 108.65112305 13.67602539 C117.69587459 16.86354215 126.90038523 21.05093007 132.4375 29.1875 C133.01366008 33.72476066 132.91495225 36.07344474 131.125 40.25 C117.13629829 55.53997628 91.84712002 59.34508747 72.5 62.8125 C71.37698486 63.01883057 70.25396973 63.22516113 69.09692383 63.43774414 C48.89629067 66.9090453 28.56682644 67.51798253 8.11010742 67.44824219 C4.37467264 67.43749906 0.63971747 67.4482245 -3.09570312 67.4609375 C-22.22668557 67.47259519 -41.22334147 66.5594406 -60.125 63.4375 C-61.14819336 63.27048584 -62.17138672 63.10347168 -63.22558594 62.93139648 C-82.25793526 59.6601198 -107.65183593 55.11310957 -121.25 40.25 C-122.893027 36.41627033 -123.56859731 33.23546965 -122.5625 29.1875 C-116.83026948 18.55152541 -103.14260051 14.23714433 -92.29492188 10.95068359 C-61.99706455 2.48829064 -31.30645439 -0.03754986 0 0 Z " fill="#E2E1E0" transform="translate(506.5625,384.8125)"/>
<path d="M0 0 C2.86336572 5.72673144 2.17592477 13.63047022 2.23828125 19.92578125 C2.2480751 20.74733704 2.25786896 21.56889282 2.26795959 22.41534424 C2.59399708 56.78501132 2.59399708 56.78501132 -2 71 C-2.20898926 71.6712793 -2.41797852 72.34255859 -2.63330078 73.03417969 C-9.18094007 93.32940917 -23.32551737 108.3315104 -42.01953125 118.171875 C-49.25805365 121.80588118 -56.61720697 124.73416281 -64.375 127.0625 C-65.09461914 127.27874023 -65.81423828 127.49498047 -66.55566406 127.71777344 C-69.90937204 128.65500496 -71.62546035 129.12484655 -75 128 C-68.28083472 98.98901578 -57.11941342 71.5118874 -40 47 C-45.89722989 52.55591111 -51.02162581 58.61558253 -56 65 C-56.79535156 66.01707031 -57.59070313 67.03414063 -58.41015625 68.08203125 C-71.45018583 85.25746464 -79.24747569 104.67158753 -86 125 C-89.15947244 123.42026378 -89.35796255 120.75898493 -90.5 117.5 C-90.9228125 116.3140625 -91.345625 115.128125 -91.78125 113.90625 C-94.62353838 105.08539372 -95.33830348 96.96127173 -95.3125 87.6875 C-95.32861328 86.54087891 -95.34472656 85.39425781 -95.36132812 84.21289062 C-95.37249901 64.47394037 -87.57713716 48.90854375 -73.953125 34.89453125 C-56.51261664 18.47029311 -24.70515217 0 0 0 Z " fill="#A5BA4C" transform="translate(584,180)"/>
<path d="M0 0 C0.99466278 -0.00090637 1.98932556 -0.00181274 3.01412964 -0.00274658 C20.98953642 -0.00089347 38.80040107 0.56521998 56.64599609 2.80712891 C58.7017836 3.06428673 60.75886285 3.3081166 62.81640625 3.55078125 C75.71344777 5.10964454 88.34067025 7.49214304 100.8125 11.1875 C101.67101562 11.435 102.52953125 11.6825 103.4140625 11.9375 C141.86369862 23.12284869 141.86369862 23.12284869 151.9140625 39.01171875 C153.03445189 41.39361527 153.52886994 43.59496926 153.9375 46.1875 C153.2775 46.1875 152.6175 46.1875 151.9375 46.1875 C151.7725 47.0125 151.6075 47.8375 151.4375 48.6875 C146.62269729 59.92203965 134.30082742 65.5029431 123.59082031 69.91210938 C52.46409006 98.02134439 -52.89952444 99.99131052 -124.0625 70.1875 C-147.66909381 59.62183969 -147.66909381 59.62183969 -152.0625 49.1875 C-152.25 46.375 -152.25 46.375 -152.0625 44.1875 C-152.7225 44.1875 -153.3825 44.1875 -154.0625 44.1875 C-151.19012617 34.13419159 -145.77871807 29.60625726 -137.0625 24.1875 C-127.16052847 18.82670109 -116.8876915 15.1919776 -106.0625 12.1875 C-104.21978516 11.66542969 -104.21978516 11.66542969 -102.33984375 11.1328125 C-91.2648644 8.17795762 -80.01840434 6.36175843 -68.70019531 4.6015625 C-66.59700275 4.27140565 -64.49707406 3.92047638 -62.3984375 3.5625 C-41.76173982 0.21883253 -20.84913977 -0.00122923 0 0 Z M-65.25 14 C-66.86624268 14.25547607 -66.86624268 14.25547607 -68.51513672 14.51611328 C-88.93638572 17.87183102 -111.08690406 22.13873235 -126.6875 36.625 C-128.61426716 40.21579335 -128.86570638 43.26905393 -128.0625 47.1875 C-123.94667756 56.05234833 -114.0569815 60.18759109 -105.375 63.6640625 C-101.62962946 64.95748495 -97.87419643 66.10569681 -94.0625 67.1875 C-92.268125 67.70763672 -92.268125 67.70763672 -90.4375 68.23828125 C-82.3733246 70.41392857 -74.23832755 71.94880473 -66 73.3125 C-65.0630127 73.47113525 -64.12602539 73.62977051 -63.16064453 73.79321289 C-43.80522507 76.84587021 -24.42948284 77.51482562 -4.86547852 77.44824219 C-1.13215873 77.43752056 2.60067901 77.44821004 6.33398438 77.4609375 C27.39092434 77.47499015 48.19784893 76.32514668 68.9375 72.5625 C69.64787415 72.43600067 70.35824829 72.30950134 71.09014893 72.1791687 C101.8021697 66.94262295 101.8021697 66.94262295 125.9375 49.1875 C127.5614674 45.93956521 127.47757815 42.69800795 126.9375 39.1875 C119.83436538 26.75701442 101.51548839 22.64416745 88.72363281 19.13525391 C57.9054483 11.42077156 26.62473172 10.04923972 -5 9.9375 C-6.02377747 9.93196106 -7.04755493 9.92642212 -8.10235596 9.92071533 C-27.27368307 9.84490587 -46.30037028 10.9724698 -65.25 14 Z " fill="#F1AE6D" transform="translate(512.0625,374.8125)"/>
<path d="M0 0 C1.7084986 2.22104819 3.19769001 4.35584201 4.5625 6.8125 C17.99747643 26.74021596 55.61122403 33.29834086 77 38 C78.01819824 38.22961426 79.03639648 38.45922852 80.08544922 38.69580078 C100.68069823 43.33031154 121.24021799 45.85500305 142.25 47.625 C142.99133179 47.68762024 143.73266357 47.75024048 144.49645996 47.8147583 C163.14546916 49.37134107 181.72155805 50.21108568 200.4375 50.1875 C201.8974086 50.18609512 201.8974086 50.18609512 203.3868103 50.18466187 C305.10087324 50.04931458 305.10087324 50.04931458 395 10 C396.9000715 8.07329198 398.39897668 6.20140707 400 4 C400.598125 3.21625 401.19625 2.4325 401.8125 1.625 C402.204375 1.08875 402.59625 0.5525 403 0 C404.98623799 5.95871397 405.1332296 13.34673999 402.625 19.1875 C390.22896174 39.70653944 358.70824874 47.71806512 337.17578125 53.0949707 C332.47299559 54.18739612 327.74544333 55.11325715 323 56 C321.70336426 56.24347168 320.40672852 56.48694336 319.07080078 56.73779297 C297.48324967 60.74031907 275.91932705 63.60493634 254 65 C253.27870911 65.04665802 252.55741821 65.09331604 251.81427002 65.14138794 C234.47693375 66.21857889 217.11451261 66.28819095 199.75 66.3125 C198.98515667 66.31379787 198.22031334 66.31509575 197.43229294 66.31643295 C158.99841173 66.365668 120.79452773 64.41946378 83 57 C82.01757324 56.81356934 81.03514648 56.62713867 80.02294922 56.43505859 C58.62117838 52.30192211 36.96940953 45.90624528 18 35 C17.11570312 34.49984375 16.23140625 33.9996875 15.3203125 33.484375 C8.17861222 29.10797954 0.51160414 22.16271347 -2 14 C-2.22407876 9.6539142 -2.17413972 5.3470433 -2 1 C-1.34 0.67 -0.68 0.34 0 0 Z " fill="#D1783F" transform="translate(310,548)"/>
<path d="M0 0 C0.74765625 -0.03738281 1.4953125 -0.07476563 2.265625 -0.11328125 C7.16576666 0.7265229 9.69924377 2.86639139 12.54931641 6.78881836 C14.58295282 9.96679991 16.52149543 13.18725868 18.4375 16.4375 C19.14083381 17.60964131 19.84543431 18.78102343 20.55126953 19.95166016 C21.96173674 22.29422527 23.36560993 24.64053646 24.76416016 26.99023438 C27.50892436 31.58216348 30.31680299 36.13421257 33.125 40.6875 C35.4735942 44.49977241 37.78341687 48.28579172 39.75 52.3125 C39.74920441 51.73478348 39.74840881 51.15706696 39.74758911 50.56184387 C39.74514931 44.54288369 39.7843625 38.52521221 39.84765625 32.5065918 C39.86581254 30.26121001 39.87338544 28.01571648 39.87011719 25.77026367 C39.86725916 22.53997406 39.90258551 19.31200011 39.9453125 16.08203125 C39.93621857 15.07977005 39.92712463 14.07750885 39.91775513 13.0448761 C40.05858496 6.27529553 40.05858496 6.27529553 42.01385498 3.55258179 C44.74132597 1.14229201 46.70576207 0.31870883 50.3125 -0.1875 C54.91692211 0.48223412 57.49728943 2.05978943 60.75 5.3125 C60.95865069 7.75465124 61.04366978 10.08443262 61.04052734 12.52856445 C61.04724457 13.27184998 61.05396179 14.0151355 61.06088257 14.78094482 C61.07992906 17.24595775 61.08379039 19.71069925 61.0859375 22.17578125 C61.09236199 23.88730482 61.09909008 25.59882728 61.10610962 27.31034851 C61.11809984 30.90248154 61.12178877 34.49451829 61.12060547 38.08666992 C61.12040245 42.68697094 61.14767918 47.28665301 61.18214989 51.88680744 C61.20440511 55.42389248 61.2084434 58.96082842 61.20738602 62.4979763 C61.20974503 64.19363725 61.21858552 65.88930212 61.23405075 67.58489418 C61.2536789 69.95978474 61.24788567 72.33333921 61.23583984 74.70825195 C61.24707886 75.40714035 61.25831787 76.10602875 61.26989746 76.82609558 C61.22480475 80.33006415 60.79754309 82.23735512 58.90713501 85.2252655 C55.94801119 88.08850091 53.41384329 88.49451551 49.4375 88.625 C48.32955078 88.68107422 48.32955078 88.68107422 47.19921875 88.73828125 C42.77390314 87.96896801 39.95979896 85.83744196 37.23168945 82.39868164 C35.60627966 80.03305321 34.07415283 77.62737288 32.5625 75.1875 C32.00296631 74.30457275 31.44343262 73.42164551 30.86694336 72.51196289 C29.14700909 69.78745663 27.44645674 67.05167387 25.75 64.3125 C25.23115234 63.48121582 24.71230469 62.64993164 24.17773438 61.79345703 C18.75726854 53.10208105 13.60275395 44.3360952 8.75 35.3125 C8.74413376 35.9197139 8.73826752 36.5269278 8.73222351 37.15254211 C8.66837272 43.46292575 8.58397497 49.77279545 8.48754883 56.08276367 C8.4542598 58.43881461 8.42624039 60.79494606 8.40356445 63.15112305 C8.37009197 66.53469207 8.31777908 69.91752054 8.26171875 73.30078125 C8.25532883 74.35711258 8.2489389 75.41344391 8.24235535 76.50178528 C8.22256119 77.48257553 8.20276703 78.46336578 8.18237305 79.47387695 C8.17126999 80.33769485 8.16016693 81.20151276 8.14872742 82.09150696 C7.66551995 84.78307109 6.87004369 85.6407375 4.75 87.3125 C1.30258453 89.03620774 -2.48035339 88.81556672 -6.25 88.3125 C-8.75160818 86.43629387 -9.86945652 85.07358697 -11.25 82.3125 C-11.36864523 79.92871428 -11.4282656 77.57317514 -11.44287109 75.18823242 C-11.45104858 74.45470047 -11.45922607 73.72116852 -11.46765137 72.96540833 C-11.49250522 70.53293679 -11.5090213 68.10052362 -11.5234375 65.66796875 C-11.52876118 64.83756891 -11.53408485 64.00716908 -11.53956985 63.15160561 C-11.56630148 58.75627185 -11.58567626 54.36096649 -11.60009766 49.96557617 C-11.61674535 45.425731 -11.66152341 40.88661181 -11.7124691 36.34704113 C-11.746126 32.85629951 -11.75767332 29.36573053 -11.76332474 25.87484169 C-11.77004163 24.20147465 -11.78527523 22.52811915 -11.80921555 20.8549099 C-11.84083868 18.5109887 -11.84090926 16.16902971 -11.83349609 13.82495117 C-11.84990143 13.13541351 -11.86630676 12.44587585 -11.88320923 11.73544312 C-11.83351721 7.89162093 -11.32831321 6.40690667 -8.83853149 3.4054718 C-5.64911676 0.82665245 -4.01776587 0.12982577 0 0 Z " fill="#5B7C4A" transform="translate(199.25,764.6875)"/>
<path d="M0 0 C7.14763424 2.80226766 11.44625797 8.08793542 15.26171875 14.57421875 C17.51700315 20.21242974 17.59918962 25.64143973 17.63671875 31.63671875 C17.65734375 32.44496094 17.67796875 33.25320313 17.69921875 34.0859375 C17.7570001 43.11427317 15.08263446 52.2954836 8.85546875 59.046875 C2.94512711 64.51394102 -3.30665281 66.98235057 -11.375 66.67578125 C-17.55865334 65.87719426 -21.29670194 63.81449538 -25.61328125 59.38671875 C-25.62786377 60.18368164 -25.64244629 60.98064453 -25.6574707 61.80175781 C-25.731956 65.41389999 -25.82861637 69.02511849 -25.92578125 72.63671875 C-25.94833984 73.89097656 -25.97089844 75.14523437 -25.99414062 76.4375 C-26.02958984 77.64277344 -26.06503906 78.84804688 -26.1015625 80.08984375 C-26.12774658 81.20004883 -26.15393066 82.31025391 -26.1809082 83.45410156 C-26.65764669 86.68763219 -27.32833407 88.0832386 -29.61328125 90.38671875 C-32.26632788 91.27106763 -34.22969757 91.66887189 -36.98828125 91.82421875 C-37.73851562 91.88480469 -38.48875 91.94539062 -39.26171875 92.0078125 C-42.89178673 91.04904039 -44.76458551 88.50553412 -46.61328125 85.38671875 C-47.09455106 82.49867905 -47.29046475 80.20873248 -47.24438477 77.33349609 C-47.25154007 76.54900589 -47.25869537 75.76451569 -47.2660675 74.95625305 C-47.28289933 72.37778495 -47.26358946 69.80106881 -47.2421875 67.22265625 C-47.24301655 65.42477271 -47.24547728 63.62688925 -47.24949646 61.82901001 C-47.25235044 58.06806523 -47.23768963 54.30771732 -47.21020508 50.546875 C-47.17607356 45.7267916 -47.18216045 40.90777173 -47.20086765 36.08763695 C-47.21143466 32.37811415 -47.20250343 28.66883892 -47.18748283 24.95933914 C-47.18230165 23.18193929 -47.18278206 21.40451359 -47.18902779 19.62711716 C-47.19447847 17.14456263 -47.1741133 14.66353306 -47.14672852 12.18115234 C-47.15325439 11.4475499 -47.15978027 10.71394745 -47.16650391 9.95811462 C-47.10204012 6.52138086 -46.85073083 4.69585706 -44.73008728 1.93496704 C-41.48536104 -0.43825081 -38.92627953 -0.21813981 -35.0234375 -0.0859375 C-31.43998325 0.61681447 -29.83652836 2.60765986 -27.61328125 5.38671875 C-24.96797499 5.38671875 -23.82021928 4.38129435 -21.61328125 2.94921875 C-14.80371978 -1.44445051 -8.00214126 -1.87793151 0 0 Z " fill="#5A7C49" transform="translate(696.61328125,787.61328125)"/>
<path d="M0 0 C1.08597473 0.00126892 2.17194946 0.00253784 3.29083252 0.00384521 C37.80945028 0.08060824 72.38973978 1.78811274 105.4375 12.625 C106.49799561 12.97183838 107.55849121 13.31867676 108.65112305 13.67602539 C117.69587459 16.86354215 126.90038523 21.05093007 132.4375 29.1875 C133.07396588 34.19966878 132.99085739 36.17301145 130.5625 40.625 C128.4375 43.1875 128.4375 43.1875 126.4375 44.1875 C125.9425 43.465625 125.4475 42.74375 124.9375 42 C119.48444334 35.86531126 112.05823491 32.94207744 104.5 30.125 C103.11856812 29.60740112 103.11856812 29.60740112 101.70922852 29.0793457 C87.96341068 24.05809118 73.88790841 21.42670056 59.39916992 19.56835938 C57.23742563 19.29036736 55.07903547 18.98592444 52.9230957 18.66601562 C38.93287691 16.72818999 24.8721727 16.88126093 10.77954102 16.92675781 C7.21861308 16.93814075 3.65798453 16.93139015 0.09706688 16.91987228 C-14.90190305 16.87874004 -29.67774407 17.18159694 -44.5625 19.1875 C-46.58798705 19.40623973 -48.61397084 19.62047672 -50.640625 19.828125 C-73.38784709 22.41725706 -101.02385385 26.80879563 -117.5625 44.1875 C-121.09214713 39.95192344 -123.52413183 36.82853298 -123.09765625 31.1640625 C-121.58068995 25.56125264 -116.90466669 22.18832765 -112.25 19.125 C-79.51388304 0.94898219 -36.53470956 -0.04382078 0 0 Z " fill="#CBCAC9" transform="translate(506.5625,384.8125)"/>
<path d="M0 0 C7.67559768 4.77164314 11.67138856 11.09619694 14.48828125 19.546875 C15.63572303 31.92975011 15.28348763 43.79224935 7.36328125 53.921875 C0.18999162 61.43454607 -8.67069937 63.62325509 -18.76171875 63.859375 C-27.5605463 63.76928462 -34.80244357 60.92765263 -41.6875 55.453125 C-50.09585708 46.66666192 -50.99842291 36.31506359 -50.78125 24.78515625 C-50.39329505 16.11063649 -46.80925456 9.71437536 -40.8125 3.53125 C-29.69543963 -6.05697864 -12.88336097 -6.34367428 0 0 Z " fill="#5A7B49" transform="translate(322.51171875,790.453125)"/>
<path d="M0 0 C11.56650726 8.65002406 20.00345663 20.71884201 23 35 C23.24992731 38.85077393 23.23126013 42.70442997 23.25 46.5625 C23.270625 47.59697266 23.29125 48.63144531 23.3125 49.69726562 C23.36339617 59.85741345 21.10561093 68.77723611 16.5 77.8125 C16.15743164 78.48627686 15.81486328 79.16005371 15.46191406 79.85424805 C3.7034248 102.07196037 -16.34685559 117.04925436 -39 127 C-39.66 127 -40.32 127 -41 127 C-41.67119549 125.5437455 -42.33681807 124.08492133 -43 122.625 C-43.556875 121.40683594 -43.556875 121.40683594 -44.125 120.1640625 C-45 118 -45 118 -45 116 C-44.49774902 115.75467529 -43.99549805 115.50935059 -43.47802734 115.2565918 C-20.07458122 103.70424108 -1.50945764 89.39169334 8.2734375 64.25390625 C11.71499169 53.57768707 12.04543091 38.5377105 7.875 28.125 C6.52896085 25.41889541 6.52896085 25.41889541 5 23 C4.55398438 22.25878906 4.10796875 21.51757812 3.6484375 20.75390625 C-2.70969495 11.35878875 -12.12154462 5.77173722 -23 3 C-33.86600348 1.64025862 -43.35811829 3.53769239 -52.375 9.8125 C-58.35315538 14.66362609 -62.52807227 20.6532972 -63.37109375 28.41796875 C-63.51427238 36.5454616 -63.18202764 43.33561349 -58 50 C-52.76100809 55.05942969 -47.49067222 58.00397836 -40.1875 58.4375 C-34.6774918 58.31432545 -31.12841981 56.57669551 -27 53 C-23.45545584 49.27822864 -22.73019999 46.43495978 -22.5625 41.4375 C-22.7291757 37.20738559 -23.06695574 34.24729901 -26 31 C-30.44710965 28.28339606 -34.93415315 28.33410665 -40 29 C-43.45121809 31.10440127 -43.87245677 32.56157015 -45 36.4375 C-45.32163517 40.05856757 -45.32163517 40.05856757 -43.1875 42.8125 C-42.465625 43.534375 -41.74375 44.25625 -41 45 C-40.34 45.66 -39.68 46.32 -39 47 C-42.28186266 46.43416161 -43.89184922 45.58727596 -46 43 C-48.20215965 39.63880895 -48.54544533 36.9739588 -48 33 C-45.80797955 28.81682153 -43.50399057 25.70728884 -39 24 C-33.7598978 23.31926165 -29.3390108 23.34266742 -24.5625 25.6875 C-20.27732207 29.55461179 -16.50543115 33.62159181 -15.62890625 39.48046875 C-15.43301018 47.46611442 -17.19676462 52.87154735 -22.64453125 58.78515625 C-29.34667297 64.9426544 -35.55917693 66.69233444 -44.57421875 66.484375 C-52.54158433 65.35786037 -59.89350411 61.22354187 -65 55 C-65.680625 54.278125 -66.36125 53.55625 -67.0625 52.8125 C-73.63447309 43.27253906 -74.23279392 33.26779035 -73 22 C-70.71419738 11.38251444 -63.50815693 3.34658876 -54.62890625 -2.49609375 C-37.0535223 -12.55036243 -16.99963482 -10.66552431 0 0 Z " fill="#ABBD52" transform="translate(712,308)"/>
<path d="M0 0 C8.2901871 8.32736283 12.61611176 17.07741822 12.6875 28.75 C12.3900459 39.33781795 9.58612136 46.75355211 2.21875 54.51953125 C-4.76894047 60.75678313 -12.0696488 62.92082792 -21.3125 62.76953125 C-28.08819339 62.08999223 -33.34365825 59.66278444 -37.9375 54.625 C-42.6326668 48.5899389 -44.64512011 43.97333087 -44.4140625 36.25390625 C-43.54496156 30.47356512 -40.50378057 26.93217197 -36.375 23 C-31.53077638 20.84701172 -27.21825998 20.73123849 -22 21.5 C-17.60452122 23.6192487 -14.74222301 25.88823322 -13 30.5 C-12.69721498 34.45783276 -12.85242691 37.98588864 -15.30859375 41.2265625 C-16.875 42.625 -16.875 42.625 -20 44.5 C-20.99 44.17 -21.98 43.84 -23 43.5 C-22.030625 42.860625 -21.06125 42.22125 -20.0625 41.5625 C-17.23963731 39.8034741 -17.23963731 39.8034741 -16 38.5 C-15.38990916 32.87188542 -15.38990916 32.87188542 -17.8125 28.0625 C-21.77407078 25.23280658 -25.23917041 25.08958366 -30 25.5 C-33.22618733 27.5790985 -34.8669302 29.30039529 -37 32.5 C-37.70517642 37.72322537 -37.64840521 42.17917457 -35.3125 46.9375 C-31.63813121 51.00909785 -28.47390095 54.05381089 -22.87109375 54.7734375 C-15.94397078 55.06253091 -10.60234367 53.69452581 -5 49.5 C2.02567404 41.36275887 2.61885564 33.99719278 2 23.5 C0.69331933 16.07949232 -4.17483809 10.18759202 -10.24609375 5.921875 C-19.07084872 0.74309805 -29.54659102 0.15724846 -39.55859375 1.9609375 C-49.94811689 5.10927785 -58.41159914 10.99866197 -63.66015625 20.5078125 C-70.03424534 33.01489038 -71.23180341 46.24166127 -67.0625 59.8125 C-60.47128146 79.37220238 -44.84328076 94.60816558 -26.640625 103.765625 C-22.47032091 105.77682901 -18.24481688 107.65259537 -14 109.5 C-12.14569495 110.33302536 -10.29149517 111.16628519 -8.4375 112 C-7.303125 112.495 -6.16875 112.99 -5 113.5 C-5.42218816 115.1498275 -5.86324425 116.79483665 -6.3125 118.4375 C-6.55613281 119.35402344 -6.79976563 120.27054688 -7.05078125 121.21484375 C-7.36402344 121.96894531 -7.67726563 122.72304688 -8 123.5 C-14.19549857 125.56516619 -22.33135147 120.30168505 -28.05810547 117.48925781 C-51.90003458 105.23882656 -71.53183174 86.95462671 -80.1640625 61 C-84.43083431 43.77340729 -82.8217406 28.10141401 -73.8125 12.6875 C-66.13919154 1.4739312 -54.732359 -6.32859045 -41.625 -9.9375 C-25.98927622 -12.45658883 -12.4512625 -10.29394962 0 0 Z " fill="#ACBD54" transform="translate(356,321.5)"/>
<path d="M0 0 C11.83582155 -0.22024861 23.3479473 -0.35425106 35 2 C35.92554688 2.18304688 36.85109375 2.36609375 37.8046875 2.5546875 C49.741794 5.3573125 61.57947952 10.98818666 69 21 C75.15570741 31.32264781 78.37916411 40.49563345 78.125 52.5 C78.11597656 53.32242188 78.10695313 54.14484375 78.09765625 54.9921875 C78.07436865 56.99492083 78.03850959 58.99750154 78 61 C74.81825332 57.86267561 71.76590542 54.6648645 68.8125 51.3125 C67.21190311 49.53843941 65.6076653 47.76765768 64 46 C63.24847656 45.16855469 62.49695313 44.33710938 61.72265625 43.48046875 C54.82399723 36.19153617 45.69028498 28.23009499 36 25 C36.44988281 25.37769531 36.89976562 25.75539063 37.36328125 26.14453125 C50.10858674 37.05083475 61.80057613 49.24103703 70 64 C70 64.99 70 65.98 70 67 C50.78780216 67.52647254 35.14489683 66.65715626 20.25 52.9375 C7.66155388 39.4384972 -0.26638602 18.407274 0 0 Z " fill="#A5B94E" transform="translate(402,246)"/>
<path d="M0 0 C0.61875 -0.01289062 1.2375 -0.02578125 1.875 -0.0390625 C5.54557898 1.10799343 7.97640895 2.36328036 10 5.625 C10.90154462 10.54586703 10.88690623 15.45057642 10.875 20.4375 C10.89313731 21.81188718 10.91394329 23.1862419 10.9375 24.56054688 C10.98459373 27.91597546 11.00444084 31.26930845 11 34.625 C11.886875 33.84125 12.77375 33.0575 13.6875 32.25 C19.58182255 27.37969111 24.97716136 27.1321334 32.4765625 27.2421875 C38.83206067 27.93269617 42.9387969 30.61664826 47.4375 35 C51.20474677 41.32897457 51.30793782 47.6178572 51.30078125 54.79296875 C51.30506638 55.7502034 51.3093515 56.70743805 51.31376648 57.69367981 C51.31948441 59.70650443 51.32002885 61.7193497 51.31567383 63.73217773 C51.31249913 66.81334327 51.33605553 69.89356129 51.36132812 72.97460938 C51.36359988 74.93489463 51.36430519 76.89518245 51.36328125 78.85546875 C51.372491 79.77531052 51.38170074 80.69515228 51.39118958 81.64286804 C51.34528627 87.96605819 51.34528627 87.96605819 49.66479492 91.1730957 C46.2889172 94.11727297 42.41688168 93.95257627 38.16015625 93.91796875 C36 93.625 36 93.625 33.5 91.75 C30.59714262 87.63761872 30.86558351 84.14336162 30.859375 79.2578125 C30.84104882 77.55076789 30.82147868 75.84373626 30.80078125 74.13671875 C30.77179168 71.44167169 30.74999954 68.74745931 30.74951172 66.05224609 C30.74617918 63.4533457 30.71164559 60.85637768 30.671875 58.2578125 C30.6789447 57.45352814 30.6860144 56.64924377 30.69329834 55.82058716 C30.60851399 51.92607265 30.37802021 50.03734914 27.70410156 47.12060547 C24.80915559 45.51944629 22.46086192 45.11131345 19.16015625 44.99609375 C15.72612934 45.99587374 13.21212319 47.87248639 11 50.625 C10.16449678 53.51983457 10.23084773 56.28886181 10.30078125 59.28515625 C10.29418991 60.11204453 10.28759857 60.9389328 10.2808075 61.7908783 C10.26336072 64.42391192 10.28529195 67.05457922 10.3125 69.6875 C10.32380718 72.32351584 10.32644999 74.95882935 10.3120575 77.59483337 C10.30468131 79.23201692 10.31285131 80.86936297 10.3384552 82.50636292 C10.3365718 85.78177659 10.23883682 88.18179629 8.66870117 91.09545898 C5.34162938 94.14507197 1.43667849 93.95273722 -2.83984375 93.91796875 C-5 93.625 -5 93.625 -7.5 91.75 C-10.27229862 87.82257696 -10.17248628 84.62370553 -10.20874023 79.94995117 C-10.21852402 79.1578978 -10.2283078 78.36584442 -10.23838806 77.54978943 C-10.26835942 74.92253303 -10.28973166 72.29532757 -10.30859375 69.66796875 C-10.31516558 68.77137354 -10.3217374 67.87477833 -10.32850838 66.95101357 C-10.36110895 62.20555829 -10.38555859 57.46012556 -10.4050293 52.71459961 C-10.42284975 48.78490593 -10.4576801 44.85592886 -10.50756836 40.92651367 C-10.56770782 36.18438642 -10.59849625 31.44292419 -10.60820198 26.70043373 C-10.6167683 24.89307229 -10.63561547 23.08572917 -10.6649456 21.27858543 C-10.70381204 18.74767798 -10.70490226 16.21936687 -10.69702148 13.68823242 C-10.71702209 12.94259033 -10.73702271 12.19694824 -10.75762939 11.42871094 C-10.7175726 8.5609979 -10.55740793 6.30062536 -8.69218636 4.03981972 C-5.97428048 1.70455469 -3.65374202 -0.07611963 0 0 Z " fill="#5A7C49" transform="translate(585,759.375)"/>
<path d="M0 0 C4.79028153 3.95883227 6.82039947 8.64302747 7.98046875 14.63671875 C8.8662843 26.3232678 8.8662843 26.3232678 4.98046875 31.63671875 C1.7544333 33.24973648 -1.76663163 32.75725474 -5.30859375 32.734375 C-6.5362294 32.73225258 -6.5362294 32.73225258 -7.78866577 32.73008728 C-10.4073245 32.72448165 -13.02589829 32.71192823 -15.64453125 32.69921875 C-17.41796752 32.69420447 -19.19140512 32.68964144 -20.96484375 32.68554688 C-25.31643907 32.67451039 -29.66797075 32.657242 -34.01953125 32.63671875 C-33.41744758 33.93241336 -32.80469787 35.22315518 -32.1875 36.51171875 C-31.6773938 37.59066406 -31.6773938 37.59066406 -31.15698242 38.69140625 C-29.32711558 41.82091452 -27.43989112 42.60415728 -24.01953125 43.63671875 C-18.03954257 44.44017212 -13.05036347 43.22339411 -7.37890625 41.3828125 C-3.24085112 40.07425533 0.2733578 38.98013762 4.41796875 40.57421875 C6.41026243 43.20404641 6.54444394 45.38699365 6.359375 48.640625 C5.73921803 51.90763751 4.43217274 53.43647158 1.98046875 55.63671875 C-8.81444385 61.13231062 -23.74179293 61.65890597 -35.44140625 58.80078125 C-43.67069251 54.99281959 -49.0125867 47.99711789 -52.30859375 39.71484375 C-55.56150294 30.20633995 -54.77209926 19.85498364 -51.01953125 10.63671875 C-47.46601976 3.80304281 -41.07711747 -2.5112044 -33.83203125 -5.36328125 C-22.09704027 -8.55437529 -9.86034435 -7.00916044 0 0 Z " fill="#5C7D4B" transform="translate(776.01953125,793.36328125)"/>
<path d="M0 0 C-0.72906796 16.14885527 -7.39992391 34.44714991 -18.8828125 46.17578125 C-22.64444263 49.41689061 -26.53707596 51.83755227 -31 54 C-31.82371094 54.41378906 -32.64742187 54.82757813 -33.49609375 55.25390625 C-43.73817891 59.52020297 -55.12410907 58.3593965 -66 58 C-62.38363591 47.58867813 -53.4373617 39.16283588 -45.8125 31.5 C-45.14782715 30.8299292 -44.4831543 30.1598584 -43.79833984 29.46948242 C-39.78034252 25.50885655 -35.6781325 22.1551607 -31 19 C-44.46072821 26.2928441 -62.88988225 36.77976451 -70 51 C-70.66 51 -71.32 51 -72 51 C-72.57176051 38.48479767 -72.17120527 26.99759308 -63.75 16.87109375 C-48.8205576 0.90858725 -21.43899401 -7.14633134 0 0 Z " fill="#DDD959" transform="translate(599,299)"/>
<path d="M0 0 C1.39025391 -0.03287109 1.39025391 -0.03287109 2.80859375 -0.06640625 C6.72610263 0.82823053 8.07882309 2.42720717 10.5625 5.5625 C11.03382606 8.55521361 11.21589355 10.98625467 11.1640625 13.96875 C11.17607193 15.17223083 11.17607193 15.17223083 11.18832397 16.40002441 C11.2113388 18.9547012 11.20195249 21.50778128 11.1875 24.0625 C11.18364645 26.61691912 11.1871372 29.17063508 11.20809937 31.72497559 C11.22014329 33.31095203 11.21759355 34.89712625 11.19839478 36.48303223 C11.22130905 41.02270976 11.72779653 43.96238345 14.5625 47.5625 C17.00112947 48.78181474 18.18887982 48.55247068 20.875 48.25 C21.63425781 48.17136719 22.39351563 48.09273437 23.17578125 48.01171875 C25.81909431 47.51420484 28.08220423 46.58794994 30.5625 45.5625 C30.5718457 44.37696533 30.58119141 43.19143066 30.59082031 41.9699707 C30.63075998 37.56203955 30.69652981 33.15480342 30.77001953 28.74731445 C30.7982061 26.84148095 30.81943216 24.93553105 30.83349609 23.02954102 C30.85495783 20.28601594 30.90162365 17.54388687 30.953125 14.80078125 C30.95496796 13.52706413 30.95496796 13.52706413 30.95684814 12.22761536 C31.05654712 8.18046336 31.26611127 6.04293003 33.43676758 2.52441406 C36.09871834 0.06760503 37.41772806 -0.08446411 41 0 C42.39025391 -0.00193359 42.39025391 -0.00193359 43.80859375 -0.00390625 C47.6672596 0.78972006 48.96017161 1.5208035 51.5625 4.5625 C52.31204364 8.80643973 52.19009774 13.01786142 52.12109375 17.31640625 C52.11759666 19.19500587 52.11759666 19.19500587 52.11402893 21.11155701 C52.10428335 23.75939636 52.08521358 26.40508091 52.04956055 29.05249023 C52.00424141 32.44439858 51.98953183 35.83553997 51.98582363 39.22772312 C51.98032913 42.46570479 51.95695338 45.70351108 51.93359375 48.94140625 C51.92823105 50.1601796 51.92286835 51.37895294 51.91734314 52.63465881 C51.90135574 53.76270432 51.88536835 54.89074982 51.86889648 56.05297852 C51.85293678 57.54378685 51.85293678 57.54378685 51.83665466 59.06471252 C51.5625 61.5625 51.5625 61.5625 49.5625 64.5625 C45.81619332 65.81126889 42.42349254 66.49321007 38.5625 65.5625 C36.12941021 63.51358228 34.3342235 61.19324096 32.5625 58.5625 C31.95921875 58.98402344 31.3559375 59.40554688 30.734375 59.83984375 C29.53554688 60.66162109 29.53554688 60.66162109 28.3125 61.5 C27.52359375 62.04527344 26.7346875 62.59054687 25.921875 63.15234375 C19.59876907 66.9315511 11.67525262 66.29069287 4.5625 65.5625 C-0.19558654 64.00735349 -3.15015326 61.52825186 -5.88989258 57.34472656 C-10.35049526 47.9530704 -10.16727915 38.7309453 -10.03442383 28.50537109 C-9.99974143 25.54039537 -10.01390503 22.5783475 -10.03320312 19.61328125 C-10.02631334 17.72134151 -10.01664886 15.82940937 -10.00390625 13.9375 C-10.00886612 13.05521729 -10.01382599 12.17293457 -10.01893616 11.26391602 C-9.90200444 5.19551303 -9.90200444 5.19551303 -7.56591797 2.01196289 C-4.89123185 0.19048876 -3.22190277 -0.00446866 0 0 Z " fill="#5B7C4A" transform="translate(357.4375,787.4375)"/>
<path d="M0 0 C7.39636824 3.26648948 11.68602431 9.23947385 15.9453125 15.88671875 C18.07424753 19.20602606 20.36560815 21.88963351 23.1953125 24.63671875 C27.48979963 28.81624828 30.11578117 31.66195721 30.3828125 37.82421875 C30.15929493 43.43078457 28.61159224 46.86312799 24.5078125 50.76171875 C19.10185569 53.27162727 13.48902735 53.44254648 7.75390625 51.703125 C7.05394531 51.43371094 6.35398437 51.16429687 5.6328125 50.88671875 C-2.16039041 47.94852735 -10.48440039 48.37019654 -18.02734375 51.703125 C-21.94732501 53.06693558 -25.92262714 53.00022031 -29.9921875 52.38671875 C-34.39827493 50.22373038 -37.1909372 47.98991396 -38.9921875 43.38671875 C-39.96703815 37.77394228 -39.52307495 33.53780607 -36.4296875 28.69921875 C-33.8418861 25.21844363 -30.92382258 22.29978662 -27.7734375 19.3359375 C-25.64636002 17.00828034 -24.16359992 14.53377353 -22.5546875 11.82421875 C-17.60388362 3.68115444 -10.0910207 -3.10645147 0 0 Z " fill="#E1E0DF" transform="translate(515.9921875,524.61328125)"/>
<path d="M0 0 C0.89912109 -0.02449219 1.79824219 -0.04898438 2.72460938 -0.07421875 C9.75189942 -0.10470591 15.8794439 1.23730415 21.41137695 5.79541016 C22.6875 7.375 22.6875 7.375 23.125 10.8125 C22.6875 14.375 22.6875 14.375 21.1875 16.8125 C17.75929979 18.95512513 14.57903969 18.9982261 10.6875 18.375 C9.51960937 17.87226562 9.51960937 17.87226562 8.328125 17.359375 C5.18754138 16.18862489 2.71520404 16.17658892 -0.625 16.25 C-1.69363281 16.26804687 -2.76226563 16.28609375 -3.86328125 16.3046875 C-5.07564453 16.33949219 -5.07564453 16.33949219 -6.3125 16.375 C-6.6425 18.025 -6.9725 19.675 -7.3125 21.375 C-3.30006589 23.57454919 0.51347593 24.97155246 4.90576172 26.11108398 C13.63256939 28.37774987 19.38187018 30.5765051 24.625 38.1875 C26.32756042 43.29518126 26.68212924 47.65634675 24.80859375 52.77734375 C21.33288389 59.67140853 16.75063251 63.30648542 9.6875 66.1875 C0.13259257 69.06706114 -12.5926117 68.83258355 -21.59765625 64.19921875 C-27.02193396 60.95613208 -27.02193396 60.95613208 -28.3125 58.375 C-28.59656345 55.43967773 -28.80715741 53.22490122 -28.3125 50.375 C-26.1875 47.8125 -26.1875 47.8125 -23.3125 46.375 C-19.71333425 46.45324273 -17.45491192 47.30234086 -14.25 48.9375 C-8.99566562 51.36348772 -2.9627405 50.78592658 2.6875 50.375 C3.6775 49.88 3.6775 49.88 4.6875 49.375 C4.57530563 46.92865123 4.57530563 46.92865123 3.6875 44.375 C1.51210686 42.99540517 1.51210686 42.99540517 -1.25 42.25 C-2.24257813 41.92773438 -3.23515625 41.60546875 -4.2578125 41.2734375 C-6.1871452 40.7059867 -8.11915236 40.14748267 -10.0546875 39.6015625 C-16.43096861 37.79914869 -20.96699955 35.78222414 -25.6875 30.9375 C-28.42361653 24.93909067 -28.70369758 18.13419346 -26.39453125 11.89453125 C-20.49913594 1.72545131 -10.8744806 0.01539205 0 0 Z " fill="#5C7E4B" transform="translate(539.3125,786.625)"/>
<path d="M0 0 C0.79921875 -0.00322266 1.5984375 -0.00644531 2.421875 -0.00976562 C8.03997243 0.04023362 13.19531014 0.89206451 18.625 2.3125 C15.79856429 5.30088057 12.8142384 6.9725113 9.1875 8.9375 C-1.16669152 14.70630236 -10.30343788 21.59996089 -18.375 30.3125 C-17.88773437 29.9721875 -17.40046875 29.631875 -16.8984375 29.28125 C-7.41965919 22.80121246 2.48819124 17.18673556 12.875 12.3125 C13.51904785 12.00965088 14.1630957 11.70680176 14.82666016 11.39477539 C19.36503098 9.3125 19.36503098 9.3125 21.625 9.3125 C21.30848695 21.80037852 16.9521338 33.92932636 8.625 43.3125 C-2.55684222 53.87693989 -16.56920328 55.68290646 -31.375 55.5 C-32.39722656 55.49935547 -33.41945313 55.49871094 -34.47265625 55.49804688 C-41.95138016 55.45370661 -41.95138016 55.45370661 -45.375 54.3125 C-43.50153903 43.39219462 -40.62683861 33.18909077 -35.4375 23.375 C-34.95192627 22.45328003 -34.95192627 22.45328003 -34.45654297 21.51293945 C-31.13189305 15.46339656 -27.26123454 10.57319428 -21.5 6.625 C-20.29730469 5.78388672 -20.29730469 5.78388672 -19.0703125 4.92578125 C-12.53951514 1.01676776 -7.45849871 -0.14893168 0 0 Z " fill="#A9BC53" transform="translate(307.375,446.6875)"/>
<path d="M0 0 C11.62110345 8.72253723 18.30809083 25.2226877 20.77734375 39.1328125 C21.01024788 41.35799116 21.12041553 43.59582359 21.19140625 45.83203125 C6.55022664 49.66079161 -11.82427821 47.68112603 -25.015625 40.58203125 C-35.96274556 33.72285641 -41.75741137 22.15061086 -44.80859375 9.83203125 C-45.26550396 7.15776267 -45.56264519 4.53746539 -45.80859375 1.83203125 C-41.45195897 2.47562502 -37.74664527 4.07080189 -33.80859375 5.95703125 C-32.82717407 6.42181885 -32.82717407 6.42181885 -31.82592773 6.89599609 C-22.51919671 11.34982727 -13.47494353 16.22439316 -4.80859375 21.83203125 C-15.0763423 10.08808882 -29.08269947 2.80205983 -42.80859375 -4.16796875 C-29.40852086 -13.10135068 -12.3831626 -7.99690198 0 0 Z " fill="#A9BC52" transform="translate(736.80859375,453.16796875)"/>
<path d="M0 0 C0.75925781 -0.03738281 1.51851562 -0.07476563 2.30078125 -0.11328125 C5.81439468 0.51353358 7.31365869 1.65129896 9.6875 4.3125 C10.05983017 7.27922677 10.1683246 9.63106241 10 12.5625 C9.97744141 13.30757812 9.95488281 14.05265625 9.93164062 14.8203125 C9.87293561 16.651909 9.78325757 18.48246653 9.6875 20.3125 C11.36779297 20.26029297 11.36779297 20.26029297 13.08203125 20.20703125 C14.55467251 20.17889161 16.02732998 20.15159163 17.5 20.125 C18.23798828 20.09986328 18.97597656 20.07472656 19.73632812 20.04882812 C25.14662279 19.97538521 25.14662279 19.97538521 27.66796875 21.546875 C28.93324542 23.73808211 29.153402 25.22248603 29.1875 27.75 C29.2184375 28.51183594 29.249375 29.27367187 29.28125 30.05859375 C28.3691655 33.52091452 26.72378443 34.51667356 23.6875 36.3125 C20.13671875 36.703125 20.13671875 36.703125 16.375 36.5625 C15.12074219 36.52640625 13.86648438 36.4903125 12.57421875 36.453125 C11.62160156 36.40671875 10.66898438 36.3603125 9.6875 36.3125 C9.79738136 40.56303264 9.92801204 44.81268035 10.0625 49.0625 C10.0934375 50.2690625 10.124375 51.475625 10.15625 52.71875 C10.19492187 53.87890625 10.23359375 55.0390625 10.2734375 56.234375 C10.32056885 57.83684082 10.32056885 57.83684082 10.36865234 59.47167969 C10.68408629 62.28208506 11.05342379 64.01109937 12.6875 66.3125 C15.93271407 66.86965589 15.93271407 66.86965589 19.625 66.8125 C26.22515357 66.86710313 26.22515357 66.86710313 28.60546875 69.16015625 C30.0862655 72.10571223 30.08693079 74.05048189 29.6875 77.3125 C28.48088147 79.96706076 27.50862293 81.7253971 25.125 83.4296875 C21.42218887 84.77076974 17.84635911 84.68111298 13.9375 84.6875 C13.1640625 84.71199219 12.390625 84.73648438 11.59375 84.76171875 C5.82850931 84.79073842 1.46025337 83.61542906 -3.3125 80.3125 C-5.37109375 78.09375 -5.37109375 78.09375 -6.75 75.8125 C-7.22308594 75.0596875 -7.69617188 74.306875 -8.18359375 73.53125 C-10.44742004 69.08193052 -10.43050802 65.10645599 -10.41015625 60.140625 C-10.4087413 59.4582074 -10.40732635 58.77578979 -10.40586853 58.07269287 C-10.40029084 55.90258316 -10.38774254 53.7325783 -10.375 51.5625 C-10.36998211 50.08724108 -10.36541971 48.61198053 -10.36132812 47.13671875 C-10.35032875 43.52861202 -10.33307953 39.92056625 -10.3125 36.3125 C-11.41722656 36.34214844 -12.52195312 36.37179687 -13.66015625 36.40234375 C-17.3125 36.3125 -17.3125 36.3125 -19.75 34.875 C-22.06321492 31.08132754 -22.22495385 27.63673783 -21.3125 23.3125 C-19.1875 20.75 -19.1875 20.75 -16.3125 19.3125 C-14.3132979 19.25601149 -12.31148597 19.24882039 -10.3125 19.3125 C-10.35890625 18.34828125 -10.4053125 17.3840625 -10.453125 16.390625 C-10.48921875 15.12734375 -10.5253125 13.8640625 -10.5625 12.5625 C-10.60890625 11.30953125 -10.6553125 10.0565625 -10.703125 8.765625 C-10.3125 5.3125 -10.3125 5.3125 -8.421875 2.921875 C-5.46113862 0.6629428 -3.67607716 0.11738734 0 0 Z " fill="#5C7E4B" transform="translate(810.3125,768.6875)"/>
<path d="M0 0 C8.04907126 6.80352155 13.53971463 14.44531904 15.30078125 25.01171875 C14.87109375 27.30859375 14.87109375 27.30859375 14.30078125 29.01171875 C13.59695313 28.44324219 12.893125 27.87476563 12.16796875 27.2890625 C1.87846361 19.24283068 -8.86313799 13.11722216 -21.69921875 10.01171875 C-21.13976562 10.25664062 -20.5803125 10.5015625 -20.00390625 10.75390625 C-8.75546732 15.99835527 2.83661481 23.87579307 11.30078125 33.01171875 C11.30078125 33.67171875 11.30078125 34.33171875 11.30078125 35.01171875 C0.51154395 39.21769261 -10.5636454 41.30880876 -21.82421875 37.19921875 C-36.67919779 30.11788387 -46.31361539 15.72636997 -52.69921875 1.01171875 C-52.69921875 0.02171875 -52.69921875 -0.96828125 -52.69921875 -1.98828125 C-51.01331033 -2.47301803 -49.3253933 -2.95077051 -47.63671875 -3.42578125 C-46.69699219 -3.69261719 -45.75726563 -3.95945312 -44.7890625 -4.234375 C-30.68685789 -7.67524161 -12.13527349 -8.93900753 0 0 Z " fill="#DED95A" transform="translate(446.69921875,326.98828125)"/>
<path d="M0 0 C2 1.6875 2 1.6875 4 4.6875 C4.1171875 6.80859375 4.1171875 6.80859375 3.875 9.125 C3.81054688 9.88683594 3.74609375 10.64867187 3.6796875 11.43359375 C2.72685041 14.59328915 1.70808317 15.77515691 -1 17.6875 C-4.63264716 18.12038745 -8.06714791 18.19455761 -11.71289062 18.17578125 C-12.81213867 18.19705078 -12.81213867 18.19705078 -13.93359375 18.21875 C-14.59415771 18.21423828 -15.25472168 18.20972656 -15.93530273 18.20507812 C-19.20822838 18.9698057 -20.73298173 20.21086017 -23 22.6875 C-23.46747667 25.65820794 -23.62932951 28.06799336 -23.56640625 31.03125 C-23.57485817 32.24041077 -23.57485817 32.24041077 -23.58348083 33.47399902 C-23.59992698 36.04575903 -23.58439193 38.61579975 -23.5625 41.1875 C-23.54590167 43.75903897 -23.53681282 46.32944454 -23.55223083 48.90100098 C-23.56150545 50.4992305 -23.55236288 52.09769946 -23.52259827 53.69567871 C-23.5402332 57.27941558 -23.6756888 59.268239 -25.90209961 62.14648438 C-28.84851926 64.31078099 -30.69557866 64.90444966 -34.3125 65.0625 C-35.07175781 65.11148438 -35.83101563 65.16046875 -36.61328125 65.2109375 C-39.35622503 64.60937536 -40.99087646 63.60754111 -42.92860413 61.57418823 C-45.4079465 57.20815864 -44.68223026 51.70889727 -44.62890625 46.8359375 C-44.63131821 45.5849527 -44.63373016 44.3339679 -44.63621521 43.04507446 C-44.63523633 40.40319407 -44.62443514 37.7635839 -44.59692383 35.12207031 C-44.56276938 31.73772167 -44.56888685 28.35488679 -44.5875864 24.97046471 C-44.60069354 21.73803384 -44.58244718 18.50583554 -44.56640625 15.2734375 C-44.57136612 14.05780121 -44.57632599 12.84216492 -44.58143616 11.58969116 C-44.56559982 10.46487335 -44.54976349 9.34005554 -44.53344727 8.18115234 C-44.52724869 7.19029633 -44.52105011 6.19944031 -44.5146637 5.17855835 C-44 2.6875 -44 2.6875 -42.10313416 0.87124634 C-38.49936979 -1.15712777 -35.01063778 -0.96306691 -31 -0.3125 C-27.97872845 1.44990841 -26.36638915 2.43261716 -25.375 5.828125 C-25.25125 6.44171875 -25.1275 7.0553125 -25 7.6875 C-24.32904297 6.96433594 -24.32904297 6.96433594 -23.64453125 6.2265625 C-16.99704049 -0.7185771 -9.4744722 -4.14508159 0 0 Z " fill="#5B7D49" transform="translate(468,788.3125)"/>
<path d="M0 0 C5.04344425 2.86031007 8.87137026 6.38764772 11.94921875 11.29296875 C13.82358585 18.43899334 14.29610777 25.3343832 10.82421875 32.04296875 C6.88357224 38.16425391 1.97631371 41.91670147 -5.05078125 44.10546875 C-11.8386915 45.04279778 -17.1919379 44.40582571 -23.0390625 40.7421875 C-26.93851916 37.56961985 -29.81041315 33.58620494 -32.05078125 29.10546875 C-33.5476435 12.71577446 -33.5476435 12.71577446 -28.01171875 5.9453125 C-19.72074498 -1.83366887 -10.72887561 -4.63539656 0 0 Z " fill="#A6B94E" transform="translate(640.05078125,237.89453125)"/>
<path d="M0 0 C0.83402344 -0.0103125 1.66804688 -0.020625 2.52734375 -0.03125 C6.26025305 0.75099293 7.52729356 1.56195521 10.0625 4.5 C10.84689987 8.72795364 10.76233537 12.92928068 10.7265625 17.21875 C10.73134613 18.46877808 10.73612976 19.71880615 10.74105835 21.00671387 C10.74446183 23.65037595 10.73775117 26.29172687 10.71435547 28.93505859 C10.68586485 32.31842149 10.70227284 35.69980156 10.73221779 39.08309174 C10.75465872 42.31588174 10.7389339 45.54843409 10.7265625 48.78125 C10.73668365 49.99486206 10.74680481 51.20847412 10.75723267 52.4588623 C10.64018863 60.83547582 10.64018863 60.83547582 7.66357422 64.25952148 C5.07458085 65.49423852 3.41501972 66.06752204 0.5625 66.0625 C-0.1696875 66.08441406 -0.901875 66.10632813 -1.65625 66.12890625 C-5.12279486 65.17323207 -7.16969714 63.57045915 -8.9375 60.5 C-9.69107948 56.30566051 -9.61391179 52.15397232 -9.56640625 47.90234375 C-9.56881821 46.67592667 -9.57123016 45.44950958 -9.57371521 44.18592834 C-9.57273665 41.59616865 -9.55934122 39.00638806 -9.53442383 36.41674805 C-9.50009373 32.44833529 -9.51377273 28.48214595 -9.53320312 24.51367188 C-9.52630552 21.99738634 -9.51663392 19.48110655 -9.50390625 16.96484375 C-9.50886612 15.77624252 -9.51382599 14.5876413 -9.51893616 13.36302185 C-9.50309982 12.25830032 -9.48726349 11.1535788 -9.47094727 10.01538086 C-9.46474869 9.04451035 -9.45855011 8.07363983 -9.4521637 7.073349 C-8.40806969 1.85281708 -5.0693859 -0.06248858 0 0 Z " fill="#587A47" transform="translate(488.9375,787.5)"/>
<path d="M0 0 C5.4228663 2.48462125 9.10486025 5.91675176 11.8046875 11.31640625 C12.53017318 18.48801059 12.18787439 23.51164523 7.8046875 29.31640625 C2.43670725 34.29160746 -2.06923436 34.73353753 -9.1796875 34.65625 C-14.46369096 34.06077293 -17.15866584 31.71174591 -20.50390625 27.77734375 C-23.78533212 22.98578071 -24.08573068 17.95875005 -23.1953125 12.31640625 C-19.69366008 2.14587647 -10.26938633 -3.19776265 0 0 Z " fill="#E18C49" transform="translate(469.1953125,197.68359375)"/>
<path d="M0 0 C3.44087925 1.23352275 5.38021446 2.21385872 7.64453125 5.0859375 C9.45154411 8.97075477 9.4411496 12.20760076 9.375 16.4375 C9.38660156 17.17548828 9.39820313 17.91347656 9.41015625 18.67382812 C9.3797065 24.38315704 8.33983992 28.66510689 4.15234375 32.84375 C0.0095375 35.06928657 -4.45169203 34.71531253 -9 34 C-13.26279545 31.04214193 -14.97387801 28.03732613 -16 23 C-16.60218165 15.98888503 -16.21016839 10.30964132 -13 4 C-9.25354477 -0.28166312 -5.46808353 -0.87918206 0 0 Z " fill="#F9FAF8" transform="translate(308,803)"/>
<path d="M0 0 C4.16030385 2.74737047 6.90513887 5.07312491 8 10 C8.76792927 16.93536125 7.99082012 22.20687402 4 28 C0.15030527 32.41306469 -2.00511967 33.80694706 -7.875 34.375 C-11.42265994 34.34233278 -11.94810418 34.04085415 -14.9375 31.6875 C-19.33665422 25.95526874 -18.67474146 18.92376749 -18 12 C-15.17100173 4.01295748 -8.72265841 -1.40185582 0 0 Z " fill="#E0DFDD" transform="translate(534,484)"/>
<path d="M0 0 C5.4856932 2.68687014 8.37029605 6.63582302 11 12 C12.51255777 16.85358727 13.00685262 22.23506794 11.24609375 27.0703125 C9.9073827 29.57973948 8.45369001 31.62732607 6.25 33.4375 C1.39029189 34.65242703 -2.41308837 34.90165433 -6.75 32.4375 C-12.53387622 26.17163409 -14.37155267 19.85310862 -14.28515625 11.47265625 C-13.75769081 6.89888057 -11.26559627 4.26559627 -8.125 1.125 C-5.1504334 -0.44977055 -3.33027272 -0.46623818 0 0 Z " fill="#E0DFDC" transform="translate(495,484)"/>
<path d="M0 0 C4.25487746 0.06069725 6.98983173 0.28621067 10.25 3.25 C14.47875473 8.79112689 13.8541312 15.61283256 13.25 22.25 C12.38713862 26.11615411 10.74228708 28.68531776 8.125 31.6875 C4.10772085 33.87080389 0.72391983 34.1856704 -3.75 33.25 C-6.81583403 31.52267979 -9.15227558 29.44544885 -10.75 26.25 C-11.0673081 22.98654645 -11.07419393 19.71449132 -11.125 16.4375 C-11.16238281 15.53451172 -11.19976563 14.63152344 -11.23828125 13.70117188 C-11.30053204 8.99432077 -11.32022375 6.96232713 -8.2890625 3.17578125 C-7.45117188 2.54027344 -6.61328125 1.90476562 -5.75 1.25 C-4.11069007 -0.38930993 -2.25256326 0.03998633 0 0 Z " fill="#F8FAF8" transform="translate(680.75,803.75)"/>
<path d="M0 0 C4.42977671 2.1357852 7.19613671 4.39012714 9 9 C9.68077475 14.01756206 9.59700231 17.80599537 7.3125 22.375 C1.72575532 28.71671018 1.72575532 28.71671018 -2.33203125 29.3828125 C-8.03815174 29.6394596 -11.63234734 28.95168574 -16 25 C-19.6734615 20.8431883 -20.65020633 17.58181949 -20.38671875 12.17578125 C-19.5853699 7.66718214 -16.84024968 4.96756024 -13.9375 1.625 C-9.39324094 -0.88884544 -5.07334788 -0.73753515 0 0 Z " fill="#B0C055" transform="translate(268,410)"/>
<path d="M0 0 C3.86998015 0.1187539 6.11752563 0.82333159 9.1875 3.3125 C15.12443798 9.80171128 16.64304844 13.74585642 16.515625 22.453125 C16.09512335 26.11749651 14.98370305 27.92750328 12.1875 30.3125 C8.87416322 31.96916839 5.74112799 32.05439777 2.1875 31.3125 C-4.13999952 27.66904811 -7.84009474 22.252901 -9.8125 15.3125 C-10.42463053 10.79803735 -10.18936835 8.97830075 -7.9375 5 C-4.26011517 0.34918977 -4.26011517 0.34918977 0 0 Z " fill="#E0DFDD" transform="translate(467.8125,512.6875)"/>
<path d="M0 0 C3.5386994 1.65139305 4.81070153 2.71605229 7 6 C7.97572387 13.02294274 7.28432894 19.23966749 3 25 C-0.39395879 28.47188131 -3.40371816 30.84940737 -8.3125 31.3125 C-12.63730212 30.94599135 -14.04850506 30.1201518 -17 27 C-19.2604099 23.01737304 -19.45984846 19.52184316 -19 15 C-16.36330115 6.53920053 -9.52533322 -1.79723268 0 0 Z " fill="#E0E0DD" transform="translate(557,513)"/>
<path d="M0 0 C3.43615111 2.12017834 5.80717883 4.09622164 7 8 C7.46612801 12.81665605 7.52190197 15.01211413 5.25 19.3125 C0.71011087 24.73514535 0.71011087 24.73514535 -3.04296875 25.31640625 C-7.13913752 25.52910513 -9.62945474 25.17841068 -13.375 23.375 C-17.13328497 19.97464693 -18.70711188 17.0083757 -19.4375 12 C-18.72323672 7.10219465 -15.79327428 3.13357441 -12 0 C-7.81974477 -1.39341841 -4.26686312 -0.97485449 0 0 Z " fill="#E39454" transform="translate(763,402)"/>
<path d="M0 0 C3.29110633 2.10070617 4.8333853 3.75007795 7 7 C7.61405598 11.2585181 7.47919235 14.95034057 5.6875 18.875 C1.84 23.72 1.84 23.72 -2 25 C-6.63382831 25.45578639 -9.62698313 25.75013484 -13.375 22.8125 C-17.42148453 18.47698086 -18.53431228 15.00201502 -18.38671875 8.99609375 C-17.6728968 5.31161885 -15.68732737 3.56517612 -13 1 C-8.6420065 -1.69566608 -4.84052715 -1.21013179 0 0 Z " fill="#D5D458" transform="translate(374,271)"/>
<path d="M0 0 C3.80285865 2.0090574 7.09334467 4.08076405 9 8 C9.73940087 12.77415625 9.45664981 16.10300929 7.25 20.4375 C4.55336516 23.50866746 2.63880476 24.7468513 -1.40234375 25.37109375 C-8.26550868 25.55086849 -8.26550868 25.55086849 -12 22.75 C-15.14630527 18.42383025 -16.56520054 15.66920879 -16.4609375 10.1015625 C-15.60803882 6.21292275 -12.90176501 3.59354645 -10 1 C-6.78548618 -0.60725691 -3.48666924 -0.47397924 0 0 Z " fill="#A7B951" transform="translate(615,336)"/>
<path d="M0 0 C3.22359407 1.5043439 5.72339849 3.26935717 8 6 C8.94200156 10.53179128 8.57366138 14.08214179 6.125 18 C2.23766165 21.65867139 -1.13332706 21.32678029 -6.29296875 21.29296875 C-9.88443175 20.90428228 -11.63040824 19.68553733 -14 17 C-15.73631636 13.52736727 -15.60190402 9.78806987 -15 6 C-10.62199646 0.46989027 -6.92514007 -0.75910189 0 0 Z " fill="#5C7E4C" transform="translate(493,759)"/>
<path d="M0 0 C2.83208635 1.37541898 3.87735525 2.49636773 6 5 C6 6.98 6 8.96 6 11 C-1.59 11 -9.18 11 -17 11 C-15.91333104 5.56665519 -15.18488622 4.41925787 -11.09765625 1.1796875 C-7.40653403 -0.89613915 -4.07204899 -0.98112775 0 0 Z " fill="#F9FBF6" transform="translate(759,802)"/>
<path d="M0 0 C4.39547878 2.1192487 7.25777699 4.38823322 9 9 C9.30278502 12.95783276 9.14757309 16.48588864 6.69140625 19.7265625 C5.125 21.125 5.125 21.125 2 23 C1.01 22.67 0.02 22.34 -1 22 C-0.030625 21.360625 0.93875 20.72125 1.9375 20.0625 C4.76036269 18.3034741 4.76036269 18.3034741 6 17 C6.61009084 11.37188542 6.61009084 11.37188542 4.1875 6.5625 C0.22592922 3.73280658 -3.23917041 3.58958366 -8 4 C-10.69139215 5.79426143 -12.72234173 7.72234173 -15 10 C-15.33 9.34 -15.66 8.68 -16 8 C-18.6571444 11.83968051 -19.43240448 14.66976147 -19.6875 19.3125 C-19.78611328 20.91544922 -19.78611328 20.91544922 -19.88671875 22.55078125 C-19.92410156 23.35902344 -19.96148437 24.16726563 -20 25 C-22.5354674 22.4645326 -22.35408781 21.39793851 -22.4375 17.875 C-22.32256463 12.02862083 -20.8571351 8.35979366 -17 4 C-11.97104459 -0.78948134 -6.61865386 -0.97506954 0 0 Z " fill="#B5C264" transform="translate(334,343)"/>
<path d="M0 0 C4.03899214 2.01949607 6.56295579 4.20904234 9 8 C8.01 8.495 8.01 8.495 7 9 C6.67 8.67 6.34 8.34 6 8 C5.67 9.32 5.34 10.64 5 12 C4.5875 11.21625 4.175 10.4325 3.75 9.625 C1.86893389 6.80340084 1.0730664 6.19871384 -2 5 C-6.5281758 4.37592449 -10.59924339 4.14588012 -14.5625 6.5625 C-16.50090068 9.84935332 -17 12.1805118 -17 16 C-15.30252228 18.85157455 -15.30252228 18.85157455 -13 21 C-12.34 21.66 -11.68 22.32 -11 23 C-14.28186266 22.43416161 -15.89184922 21.58727596 -18 19 C-20.20215965 15.63880895 -20.54544533 12.9739588 -20 9 C-15.43404704 0.28648817 -9.48468392 -1.12716534 0 0 Z " fill="#B5C061" transform="translate(684,332)"/>
<path d="M0 0 C9.89320511 4.97049918 18.11842232 11.30748083 25 20 C21.01622653 18.08983169 17.21247151 15.87118268 13.375 13.6875 C7.33815118 10.26840587 1.26108006 6.99508397 -5 4 C-3.35 2.68 -1.7 1.36 0 0 Z " fill="#F5F7E8" transform="translate(708,456)"/>
<path d="M0 0 C1.22589844 0.29197266 1.22589844 0.29197266 2.4765625 0.58984375 C3.41628906 0.82380859 3.41628906 0.82380859 4.375 1.0625 C4.375 1.3925 4.375 1.7225 4.375 2.0625 C3.68792969 2.14886719 3.00085938 2.23523438 2.29296875 2.32421875 C-3.31980348 3.09433513 -3.31980348 3.09433513 -7.8125 6.25 C-8.89948398 10.01263684 -8.7018268 12.29360622 -7.625 16.0625 C-5.20863062 18.98136589 -5.20863062 18.98136589 -2.625 21.0625 C-5.90686266 20.49666161 -7.51684922 19.64977596 -9.625 17.0625 C-11.82715965 13.70130895 -12.17044533 11.0364588 -11.625 7.0625 C-8.58724337 1.55162552 -6.49676093 -1.5777848 0 0 Z " fill="#BFCC7B" transform="translate(675.625,333.9375)"/>
<path d="M0 0 C4.0185454 2.06357737 6.33140744 3.735819 8 8 C8.30923017 11.95526959 8.14550277 15.48862022 5.69140625 18.7265625 C4.125 20.125 4.125 20.125 1 22 C0.01 21.67 -0.98 21.34 -2 21 C-1.030625 20.360625 -0.06125 19.72125 0.9375 19.0625 C3.76036269 17.3034741 3.76036269 17.3034741 5 16 C5.62198567 10.39143823 5.62198567 10.39143823 3.1875 5.625 C1.49409348 4.36704087 -0.24477086 3.17015276 -2 2 C-1.34 2 -0.68 2 0 2 C0 1.34 0 0.68 0 0 Z " fill="#BBC96F" transform="translate(335,344)"/>
<path d="M0 0 C3.3 0 6.6 0 10 0 C10.33 0.99 10.66 1.98 11 3 C7.18243176 4.37432457 3.92744671 3.67975039 0 3 C0 2.01 0 1.02 0 0 Z " fill="#ABB84D" transform="translate(673,332)"/>
<path d="M0 0 C0.66 0.33 1.32 0.66 2 1 C0.84826645 3.46800047 -0.04783565 5.04783565 -2 7 C-4.58064129 7.14497985 -7.04943884 7.18677545 -9.625 7.125 C-10.33140625 7.11597656 -11.0378125 7.10695313 -11.765625 7.09765625 C-13.51056098 7.07407603 -15.25532295 7.03820461 -17 7 C-17 6.67 -17 6.34 -17 6 C-16.10796875 5.98582031 -15.2159375 5.97164062 -14.296875 5.95703125 C-12.54117187 5.88548828 -12.54117187 5.88548828 -10.75 5.8125 C-9.00976562 5.76029297 -9.00976562 5.76029297 -7.234375 5.70703125 C-3.21238929 4.82782906 -2.18500716 3.39108784 0 0 Z " fill="#708B61" transform="translate(469,799)"/>
<path d="M0 0 C0.33 0 0.66 0 1 0 C1.16768422 3.93745736 1.3339732 7.87497243 1.5 11.8125 C1.57154297 13.49182617 1.57154297 13.49182617 1.64453125 15.20507812 C1.68964844 16.27822266 1.73476563 17.35136719 1.78125 18.45703125 C1.82314453 19.44678955 1.86503906 20.43654785 1.90820312 21.45629883 C1.97485575 23.30325026 2 25.15184629 2 27 C1.34 27.33 0.68 27.66 0 28 C0 18.76 0 9.52 0 0 Z " fill="#CCD2C3" transform="translate(595,767)"/>
<path d="M0 0 C1.60226148 4.00565371 0.47694566 7.08609399 -1 11 C-1.99 11.33 -2.98 11.66 -4 12 C-4.50423019 6.70558305 -3.18923033 4.18586481 0 0 Z " fill="#A6B748" transform="translate(318,350)"/>
<path d="M0 0 C2.97 0 5.94 0 9 0 C9.33 0.99 9.66 1.98 10 3 C6.7 3 3.4 3 0 3 C0 2.01 0 1.02 0 0 Z " fill="#ACB94D" transform="translate(325,343)"/>
<path d="M0 0 C0.66 0.33 1.32 0.66 2 1 C-0.26244643 4.33413158 -2.82656135 6.54058505 -6 9 C-7.0173873 9.98230498 -8.02596117 10.97469597 -9 12 C-9.66 11.67 -10.32 11.34 -11 11 C-7.37 7.37 -3.74 3.74 0 0 Z " fill="#F4F6E4" transform="translate(299,466)"/>
<path d="M0 0 C2.95290136 1.37098992 5.60419752 2.77532627 8 5 C8 6.32 8 7.64 8 9 C6.68 9.33 5.36 9.66 4 10 C3.566875 8.3603125 3.566875 8.3603125 3.125 6.6875 C2.18106796 2.95986155 2.18106796 2.95986155 0 0 Z " fill="#A7B54B" transform="translate(686,336)"/>
<path d="M0 0 C1.20076172 0.31324219 1.20076172 0.31324219 2.42578125 0.6328125 C3.23402344 0.83648437 4.04226563 1.04015625 4.875 1.25 C5.48988281 1.41757812 6.10476563 1.58515625 6.73828125 1.7578125 C6.73828125 2.0878125 6.73828125 2.4178125 6.73828125 2.7578125 C6.05121094 2.87898438 5.36414063 3.00015625 4.65625 3.125 C3.30466797 3.37636719 3.30466797 3.37636719 1.92578125 3.6328125 C0.58580078 3.87644531 0.58580078 3.87644531 -0.78125 4.125 C-3.48899721 4.66969699 -3.48899721 4.66969699 -6.26171875 6.7578125 C-5.94921875 4.3828125 -5.94921875 4.3828125 -5.26171875 1.7578125 C-2.26171875 -0.2421875 -2.26171875 -0.2421875 0 0 Z " fill="#B8C46A" transform="translate(673.26171875,333.2421875)"/>
<path d="M0 0 C0 4.07746885 -1.52068051 5.83198065 -4 9 C-6.25 9.875 -6.25 9.875 -8 10 C-6.34908222 5.70761377 -3.26245434 3.1206085 0 0 Z " fill="#E6EACD" transform="translate(544,226)"/>
<path d="M0 0 C0 0.66 0 1.32 0 2 C-0.99 2.33 -1.98 2.66 -3 3 C-3.33 3.66 -3.66 4.32 -4 5 C-6.475 4.01 -6.475 4.01 -9 3 C-4.5 0 -4.5 0 0 0 Z " fill="#B5C569" transform="translate(703,446)"/>
<path d="M0 0 C0.66 0 1.32 0 2 0 C1.25749403 4.08378283 0.17076699 8.01939223 -1 12 C-1.33 12 -1.66 12 -2 12 C-2.28571429 3.42857143 -2.28571429 3.42857143 0 0 Z " fill="#728D63" transform="translate(274,807)"/>
<path d="M0 0 C1.5 1.125 1.5 1.125 3 3 C3.1875 6.1875 3.1875 6.1875 3 9 C2.34 8.67 1.68 8.34 1 8 C0.40644386 5.35139573 0.25790731 2.70802678 0 0 Z " fill="#4E703F" transform="translate(349,833)"/>
</svg>
